<?xml version="1.0" standalone="no"?>
<!DOCTYPE svg PUBLIC "-//W3C//DTD SVG 20010904//EN"
 "http://www.w3.org/TR/2001/REC-SVG-20010904/DTD/svg10.dtd">
<svg version="1.0" xmlns="http://www.w3.org/2000/svg"
 width="1833.000000pt" height="248.000000pt" viewBox="0 0 1833.000000 248.000000"
 preserveAspectRatio="xMidYMid meet">

<g transform="translate(0.000000,248.000000) scale(0.100000,-0.100000)"
fill="#000000" stroke="none">
<path d="M16373 1924 c3 -4 30 -7 59 -8 29 -1 62 -6 73 -11 19 -8 19 -8 3 8
-12 12 -34 17 -79 17 -34 0 -60 -3 -56 -6z"/>
<path d="M16333 1895 c-19 -21 -16 -27 7 -13 11 7 20 16 20 20 0 12 -14 9 -27
-7z"/>
<path d="M16540 1810 c0 -22 5 -40 10 -40 6 0 10 18 10 40 0 22 -4 40 -10 40
-5 0 -10 -18 -10 -40z"/>
<path d="M16320 1750 c0 -5 5 -10 11 -10 5 0 7 5 4 10 -3 6 -8 10 -11 10 -2 0
-4 -4 -4 -10z"/>
<path d="M16385 1700 c3 -5 26 -10 50 -10 24 0 47 5 50 10 4 6 -15 10 -50 10
-35 0 -54 -4 -50 -10z"/>
<path d="M7550 1590 c0 -5 4 -10 9 -10 34 0 36 -23 33 -357 l-3 -331 -22 -6
c-18 -5 -20 -8 -7 -16 16 -11 139 -14 164 -4 20 8 11 24 -14 24 -10 0 -21 7
-24 16 -3 9 -6 168 -6 355 l0 339 -65 0 c-37 0 -65 -4 -65 -10z"/>
<path d="M8380 1590 c0 -5 6 -10 14 -10 8 0 22 -7 30 -16 14 -13 16 -61 16
-365 0 -192 3 -349 7 -349 4 0 17 9 29 21 l22 20 62 -20 c111 -37 217 -25 285
31 52 44 76 98 82 189 10 136 -27 225 -114 276 -40 23 -59 28 -123 28 -60 0
-83 -4 -113 -22 -21 -13 -42 -23 -48 -23 -5 0 -9 53 -9 125 l0 125 -70 0 c-40
0 -70 -4 -70 -10z m385 -256 c41 -27 66 -88 72 -173 13 -179 -50 -281 -173
-281 -57 0 -100 26 -124 74 -17 37 -20 62 -20 187 l0 145 29 28 c15 15 41 31
57 36 41 13 128 5 159 -16z"/>
<path d="M10600 1591 c0 -5 11 -12 25 -15 l25 -6 0 -355 c0 -241 3 -356 11
-360 6 -4 21 3 33 14 l23 22 61 -20 c150 -51 281 -12 338 101 70 138 28 331
-86 396 -61 35 -186 37 -239 4 -19 -11 -38 -19 -43 -16 -4 3 -8 59 -8 125 l0
119 -70 0 c-38 0 -70 -4 -70 -9z m384 -257 c13 -11 35 -37 48 -59 20 -35 23
-53 23 -150 0 -95 -3 -116 -22 -152 -30 -56 -72 -83 -136 -89 -66 -7 -115 17
-139 66 -15 29 -18 63 -18 191 0 173 0 172 70 204 45 20 139 14 174 -11z"/>
<path d="M6327 1573 c-12 -12 -7 -22 13 -28 19 -6 20 -15 20 -331 0 -314 -1
-324 -19 -324 -31 0 -35 -19 -6 -26 14 -4 106 -4 203 -2 240 7 305 31 347 130
19 46 20 128 1 171 -18 44 -73 90 -134 112 l-51 19 39 33 c49 42 62 100 35
157 -22 45 -66 69 -156 85 -71 12 -281 15 -292 4z m311 -52 c28 -15 62 -68 62
-96 0 -30 -36 -82 -67 -98 -40 -21 -151 -31 -169 -16 -21 17 -20 215 1 226 20
11 144 0 173 -16z m17 -267 c111 -28 145 -69 145 -175 0 -125 -71 -180 -238
-187 -73 -4 -96 -1 -103 9 -14 23 -11 356 4 362 26 11 136 6 192 -9z"/>
<path d="M2178 1507 c-127 -36 -204 -136 -230 -300 -21 -135 14 -266 94 -353
67 -73 106 -89 218 -89 112 0 151 16 219 90 54 58 78 112 93 209 20 132 -15
272 -91 359 -66 75 -201 112 -303 84z m189 -37 c86 -48 117 -149 111 -365 -5
-168 -27 -237 -91 -289 -34 -27 -48 -31 -111 -34 -116 -6 -175 33 -213 141
-25 73 -26 346 -1 427 20 64 66 114 124 136 51 19 133 12 181 -16z"/>
<path d="M762 1488 c46 -71 54 -40 -96 -388 -76 -176 -136 -324 -132 -327 9
-10 12 -5 71 128 l54 124 158 0 157 0 56 -127 55 -128 42 0 c24 0 43 4 43 9 0
5 -68 166 -151 358 -83 191 -153 354 -156 361 -3 7 -26 12 -60 12 -55 0 -55 0
-41 -22z m133 -282 c36 -82 65 -150 65 -152 0 -2 -63 -4 -140 -4 -91 0 -140 4
-140 11 0 9 46 121 105 253 16 36 30 55 35 50 5 -5 39 -76 75 -158z"/>
<path d="M1280 1139 l0 -371 143 4 c96 3 156 9 185 20 141 52 223 181 224 354
1 113 -22 182 -83 249 -78 84 -176 115 -371 115 l-98 0 0 -371z m296 326 c61
-18 109 -61 136 -122 17 -37 23 -74 26 -166 8 -199 -25 -301 -115 -353 -39
-24 -59 -28 -149 -32 l-104 -5 0 347 0 346 78 0 c43 0 101 -7 128 -15z"/>
<path d="M2710 1142 l0 -372 40 0 40 0 0 170 0 170 45 0 45 0 99 -149 c55 -82
112 -158 127 -170 19 -15 41 -21 76 -21 l50 0 -32 33 c-35 37 -220 306 -220
319 0 5 15 15 34 23 81 34 128 99 128 175 0 126 -80 174 -309 186 l-123 7 0
-371z m267 323 c40 -17 64 -62 70 -134 6 -70 -9 -130 -41 -161 -33 -30 -191
-53 -207 -30 -14 24 -11 323 4 339 15 15 124 6 174 -14z"/>
<path d="M3337 1504 c-4 -4 -7 -171 -7 -371 l0 -363 210 0 210 0 0 31 c0 26
-3 30 -17 24 -53 -20 -148 -35 -225 -35 l-88 0 0 171 0 172 140 -5 c140 -5
140 -5 140 17 0 22 0 22 -140 17 l-140 -5 0 162 0 161 88 0 c80 -1 103 -4 200
-25 33 -8 33 -7 30 21 l-3 29 -196 3 c-107 1 -198 -1 -202 -4z"/>
<path d="M3970 1506 c0 -3 15 -28 33 -57 l32 -52 3 -314 c2 -265 5 -313 17
-313 12 0 15 42 17 262 l3 263 115 -268 c63 -147 118 -267 121 -267 4 0 62
150 130 333 l124 332 3 -327 2 -328 45 0 45 0 -2 368 -3 367 -42 3 c-52 4 -41
25 -169 -320 -54 -147 -103 -266 -108 -265 -5 2 -64 129 -130 283 -67 153
-125 285 -129 292 -7 11 -107 18 -107 8z"/>
<path d="M4816 1494 c-3 -9 -6 -175 -6 -370 l0 -354 210 0 210 0 6 25 c4 14 5
27 3 29 -2 2 -35 -4 -74 -14 -44 -12 -107 -19 -167 -19 l-98 -1 0 171 0 172
145 -5 145 -6 0 23 0 22 -145 -5 -145 -5 0 162 0 161 93 0 c50 0 119 -7 152
-15 79 -19 75 -19 75 15 l0 30 -199 0 c-172 0 -200 -2 -205 -16z"/>
<path d="M7154 1391 c-74 -19 -154 -91 -179 -160 -8 -24 -15 -76 -15 -115 0
-81 28 -152 76 -198 107 -100 332 -96 424 9 27 31 39 63 24 63 -4 0 -28 -20
-54 -44 -123 -115 -314 -77 -364 72 -22 62 -21 158 0 166 9 3 107 6 219 6 128
0 206 4 210 10 11 17 -15 79 -48 116 -47 54 -100 77 -187 80 -41 2 -89 -1
-106 -5z m162 -40 c43 -20 84 -73 84 -110 0 -21 -3 -21 -164 -21 -91 0 -167 4
-170 9 -10 16 51 97 85 113 74 34 106 36 165 9z"/>
<path d="M7965 1394 c-39 -10 -107 -48 -121 -68 -19 -28 -18 -60 4 -79 40 -36
78 -9 68 47 -8 42 4 53 78 68 68 15 138 0 175 -37 24 -23 44 -104 32 -124 -4
-7 -29 -7 -68 -1 -71 10 -189 -2 -230 -24 -68 -34 -103 -87 -103 -151 0 -108
82 -174 216 -175 79 0 128 13 160 42 21 19 22 19 49 -6 14 -14 40 -28 56 -31
39 -9 89 12 89 36 0 22 -4 23 -29 7 -15 -9 -23 -9 -35 1 -13 11 -16 41 -16
183 0 209 -14 253 -94 294 -31 16 -189 28 -231 18z m233 -251 c17 -22 8 -157
-13 -189 -37 -57 -96 -80 -176 -69 -84 12 -135 92 -110 174 25 86 80 114 206
107 61 -3 82 -8 93 -23z"/>
<path d="M9866 1385 c-21 -7 -58 -28 -82 -45 l-44 -31 0 28 c0 47 -11 54 -75
51 -64 -3 -83 -21 -41 -38 l26 -10 0 -220 0 -220 -27 -11 c-22 -8 -24 -12 -13
-19 17 -11 140 -13 164 -4 20 8 11 24 -15 24 -18 0 -19 9 -19 184 l0 183 44
41 c74 68 173 80 225 27 25 -25 26 -28 29 -205 5 -203 1 -230 -29 -230 -12 0
-19 -5 -17 -12 5 -14 116 -23 155 -13 28 7 30 25 3 25 -19 0 -20 7 -20 191 l0
191 30 28 c64 60 174 77 221 34 31 -28 39 -80 39 -254 0 -188 4 -202 70 -221
43 -13 94 0 104 27 7 19 -10 27 -32 13 -11 -7 -27 -9 -36 -6 -14 6 -16 29 -17
179 0 199 -11 242 -70 290 -26 21 -51 31 -90 35 -71 7 -125 -9 -183 -54 l-48
-37 -28 32 c-51 59 -139 77 -224 47z"/>
<path d="M12100 1393 c-38 -13 -78 -34 -99 -52 -26 -23 -41 -27 -41 -11 0 6 1
11 2 13 1 1 -4 12 -11 25 -10 19 -20 22 -71 22 -53 0 -60 -2 -60 -19 0 -13 8
-21 23 -23 22 -3 22 -4 25 -208 3 -229 1 -250 -28 -250 -24 0 -26 -15 -4 -24
25 -10 138 -7 154 4 13 8 12 11 -7 16 -29 8 -33 28 -33 199 0 125 3 155 17
175 43 64 100 94 176 94 52 1 61 -2 83 -27 24 -28 24 -31 24 -228 0 -194 -1
-201 -20 -206 -12 -3 -19 -11 -17 -17 4 -12 117 -21 154 -11 29 7 30 23 1 27
-23 3 -23 5 -26 181 -1 109 2 185 8 197 6 11 32 34 58 52 41 28 55 33 110 33
59 0 66 -2 87 -29 31 -39 35 -64 35 -242 0 -84 4 -164 10 -178 14 -37 70 -62
111 -50 32 9 59 37 47 49 -3 4 -16 1 -28 -5 -46 -25 -50 -12 -50 154 0 86 -5
178 -12 207 -34 145 -199 186 -334 83 l-46 -36 -37 36 c-20 19 -49 40 -64 45
-29 11 -110 14 -137 4z"/>
<path d="M8975 1380 c-9 -15 3 -30 26 -30 18 0 19 -8 19 -160 0 -228 17 -287
93 -327 48 -24 151 -21 209 7 26 12 52 28 59 36 17 21 26 17 38 -17 10 -29 12
-30 67 -27 35 2 59 8 62 16 2 7 -5 12 -17 12 -12 0 -22 1 -23 3 -1 1 -5 112
-8 247 l-5 245 -65 0 c-51 0 -65 -3 -65 -15 0 -8 10 -16 21 -18 30 -4 34 -25
34 -195 0 -166 -4 -181 -68 -230 -44 -34 -104 -51 -151 -42 -78 15 -84 36 -91
290 l-5 210 -62 3 c-35 2 -64 -2 -68 -8z"/>
<path d="M11197 1383 c-15 -15 -6 -33 17 -33 l24 0 4 -192 c3 -171 5 -197 23
-227 56 -96 185 -115 302 -45 30 19 57 34 59 34 2 0 4 -8 4 -18 0 -10 5 -23
12 -30 13 -13 82 -15 113 -2 19 7 18 9 -7 19 l-28 10 -2 243 -3 243 -67 3
c-62 3 -68 1 -68 -17 0 -13 8 -21 23 -23 22 -3 22 -5 25 -184 l2 -181 -44 -41
c-81 -74 -188 -80 -233 -13 -22 33 -23 42 -23 232 0 108 -3 204 -6 213 -5 12
-20 16 -63 16 -32 0 -61 -3 -64 -7z"/>
</g>
</svg>
