<svg id="Capa_1" enable-background="new 0 0 512 512" height="512" viewBox="0 0 512 512" width="512" xmlns="http://www.w3.org/2000/svg"><path d="m507.59 486.386-134.255-134.255c18.134-13.609 33.859-30.329 46.429-49.542 83.803-128.09-6.395-302.553-163.793-302.553-63.36 0-120.152 29.962-156.494 78.238l-73.871-73.872c-5.857-5.858-15.355-5.858-21.212 0-5.858 5.858-5.858 15.354 0 21.212l78.592 78.592c-15.203 28.698-22.575 61.065-22.575 88.102v214.115c0 58.02 47.045 105.366 104.873 105.541h.425c42.544-.001 73.939-19.365 90.799-56.017 28.159-61.221 75.002-78.985 90.852-87.369l139.02 139.02c2.929 2.929 6.767 4.393 10.606 4.393 13.242.001 20.08-16.13 10.604-25.605zm-250.735-456.349c90.826.469 164.719 74.755 164.719 165.595 0 54.057-26.609 104.287-69.727 135.011l-29.496-29.496c66.142-41.36 79.202-136.06 22.07-193.5-58.091-58.397-154.57-43.579-193.699 21.872l-29.607-29.607c30.915-43.307 81.07-70.155 135.74-69.875zm-48.792 84.034c12.1 22.752 10.648 45.779-8.546 64.242l-26.663-26.663c7.733-16.141 20.384-28.87 35.209-37.579zm28.097-10.894c65.394-13.969 124.992 42.01 112.846 109.16-5.266 29.119-22.841 53.188-48.607 66.859l-79.668-79.668c27.786-27.092 31.809-62.877 15.429-96.351zm-6.907 340.234c-11.933 25.942-32.717 38.556-63.537 38.555-.113 0-.229 0-.342 0-41.336-.125-74.964-34.013-74.964-75.542 0-2.027-.006-212.803.011-213.844.423-23.441 5.8-45.715 15.098-65.84l32.713 32.713c-5.282 20.441-4.965 42.418 1.542 63.52l11.555 37.475c2.441 7.917 10.839 12.357 18.753 9.914 7.916-2.441 12.355-10.837 9.914-18.753l-11.555-37.475c-2.881-9.345-4.135-18.913-3.853-28.325l106.962 106.961c-42.887 20.702-62.235 48.318-81.225 71.828-5.205 6.445-4.201 15.889 2.244 21.094 6.453 5.212 15.895 4.191 21.093-2.244 25.268-31.285 35.686-47.373 80.45-68.117l30.878 30.878c-42.997 19.756-76.306 54.955-95.737 97.202z"/></svg>